# xmcd
#
# Track frame offsets:
#	150
#	11389
#	27626
#	45030
#	59890
#	76863
#	91981
#	113960
#	129814
#	148255
#	163680
#	184624
#	201272
#	219270
#	239216
#	256275
#	274639
#	290819
#
# Disc length: 4103 seconds
#
# Revision: 0
# Processed by: cddbd v1.5.2PL0 Copyright (c) Steve Scherf et al.
# Submitted via: EasyCDDAExtractor 12.0.7.1
#
DISCID=07100512
DTITLE=Ирина Круг - Аллея шансона
DYEAR=2011
DGENRE=Chanson
TTITLE0=Встретились глаза (дуэт с М. Кругом)
TTITLE1=Вернись из августа ко мне
TTITLE2=Моя королева
TTITLE3=Колыбельная сыну
TTITLE4=Напиши мне
TTITLE5=Господа
TTITLE6=Я все уже пережила
TTITLE7=Здравствуй
TTITLE8=Неужели любовь обман
TTITLE9=Без тебя
TTITLE10=Воспоминания (дуэт с Л. Телешевым)
TTITLE11=Пусть сейчас я плачу
TTITLE12=Боль о тебе
TTITLE13=Я тебя люблю
TTITLE14=Две странички
TTITLE15=Букет из белых роз (дуэт с В. Королевым)
TTITLE16=Я прочитаю в глазах твоих
TTITLE17=В плену твоих рук
EXTD=
EXTT0=
EXTT1=
EXTT2=
EXTT3=
EXTT4=
EXTT5=
EXTT6=
EXTT7=
EXTT8=
EXTT9=
EXTT10=
EXTT11=
EXTT12=
EXTT13=
EXTT14=
EXTT15=
EXTT16=
EXTT17=
PLAYORDER=
